<svg width="1440" height="320" xmlns="http://www.w3.org/2000/svg">

 <g>
  <title>Layer 1</title>
  <path stroke="null" id="svg_1" d="m0,256l34.3,5.3c34.3,5.7 102.7,15.7 171.7,-16c68.3,-32.3 146,-96.3 214,-139.3c69,-43 119,-41 187,-9.3c68.7,32.3 147,129.3 216,129.6c68.4,-0.3 137,-119.3 206,-125c68.1,-5.3 117,118.7 185,124c68.9,5.7 104,-118.3 191,-112.6l47,0.3l-12,207l-34.3,0c-34.3,0 -102.7,0 -171.7,0c-68.3,0 -137,0 -205,0c-69,0 -138,0 -206,0c-68.7,0 -137,0 -206,0c-68.4,0 -137,0 -206,0c-68.1,0 -137,0 -205,0c-68.9,0 -137,0 -172,0l-34,0l0,-64z" fill="#e36194"/>
  <ellipse ry="35" rx="36.5" id="svg_4" cy="106" cx="193.5" stroke="null" fill="#cbd3d8"/>
 </g>
</svg>